<mxfile host="app.diagrams.net" modified="2022-09-25T17:55:12.947Z" agent="5.0 (Macintosh; Intel Mac OS X 10_15_7) AppleWebKit/605.1.15 (KHTML, like Gecko) Version/16.0 Safari/605.1.15" etag="V2D7bsFIKCwSW0yZXNAX" version="20.3.6" type="github">
  <diagram id="aPRocprxUMi0CEebCQaN" name="Page-1">
    <mxGraphModel dx="570" dy="327" grid="1" gridSize="10" guides="1" tooltips="1" connect="1" arrows="1" fold="1" page="1" pageScale="1" pageWidth="2336" pageHeight="1654" math="0" shadow="0">
      <root>
        <mxCell id="0" />
        <mxCell id="1" parent="0" />
        <mxCell id="d-2P0EwqSTClX3Ax-pOf-6" value="MEDIA_CHANEL" style="rounded=1;arcSize=10;whiteSpace=wrap;html=1;align=center;labelBackgroundColor=none;labelBorderColor=none;strokeWidth=0;" vertex="1" parent="1">
          <mxGeometry x="1140" y="190" width="100" height="40" as="geometry" />
        </mxCell>
        <mxCell id="d-2P0EwqSTClX3Ax-pOf-8" value="Category" style="ellipse;whiteSpace=wrap;html=1;align=center;labelBackgroundColor=none;labelBorderColor=none;strokeWidth=0;" vertex="1" parent="1">
          <mxGeometry x="1140" y="120" width="100" height="40" as="geometry" />
        </mxCell>
        <mxCell id="d-2P0EwqSTClX3Ax-pOf-9" value="Name" style="ellipse;whiteSpace=wrap;html=1;align=center;labelBackgroundColor=none;labelBorderColor=none;strokeWidth=0;" vertex="1" parent="1">
          <mxGeometry x="1260" y="120" width="100" height="40" as="geometry" />
        </mxCell>
        <mxCell id="d-2P0EwqSTClX3Ax-pOf-24" value="BROADCAST_M" style="rounded=1;arcSize=10;whiteSpace=wrap;html=1;align=center;labelBackgroundColor=none;labelBorderColor=none;strokeWidth=0;" vertex="1" parent="1">
          <mxGeometry x="1000" y="270" width="100" height="40" as="geometry" />
        </mxCell>
        <mxCell id="d-2P0EwqSTClX3Ax-pOf-25" value="PRINT_M" style="rounded=1;arcSize=10;whiteSpace=wrap;html=1;align=center;labelBackgroundColor=none;labelBorderColor=none;strokeWidth=0;" vertex="1" parent="1">
          <mxGeometry x="1140" y="270" width="100" height="40" as="geometry" />
        </mxCell>
        <mxCell id="d-2P0EwqSTClX3Ax-pOf-27" value="DIGITAL_M" style="whiteSpace=wrap;html=1;align=center;labelBackgroundColor=none;labelBorderColor=none;strokeWidth=0;" vertex="1" parent="1">
          <mxGeometry x="1280" y="270" width="100" height="40" as="geometry" />
        </mxCell>
        <mxCell id="d-2P0EwqSTClX3Ax-pOf-36" value="Id" style="ellipse;whiteSpace=wrap;html=1;align=center;fontStyle=4;labelBackgroundColor=none;labelBorderColor=none;strokeWidth=0;" vertex="1" parent="1">
          <mxGeometry x="1020" y="120" width="100" height="40" as="geometry" />
        </mxCell>
        <mxCell id="d-2P0EwqSTClX3Ax-pOf-37" value="" style="endArrow=none;html=1;rounded=0;entryX=0.25;entryY=0;entryDx=0;entryDy=0;exitX=0.591;exitY=1.054;exitDx=0;exitDy=0;exitPerimeter=0;" edge="1" parent="1" source="d-2P0EwqSTClX3Ax-pOf-36" target="d-2P0EwqSTClX3Ax-pOf-6">
          <mxGeometry relative="1" as="geometry">
            <mxPoint x="1070" y="170" as="sourcePoint" />
            <mxPoint x="1140" y="170" as="targetPoint" />
          </mxGeometry>
        </mxCell>
        <mxCell id="d-2P0EwqSTClX3Ax-pOf-38" value="" style="endArrow=none;html=1;rounded=0;exitX=0.5;exitY=1;exitDx=0;exitDy=0;entryX=0.5;entryY=0;entryDx=0;entryDy=0;" edge="1" parent="1" source="d-2P0EwqSTClX3Ax-pOf-8" target="d-2P0EwqSTClX3Ax-pOf-6">
          <mxGeometry relative="1" as="geometry">
            <mxPoint x="1070" y="210" as="sourcePoint" />
            <mxPoint x="1130" y="210" as="targetPoint" />
          </mxGeometry>
        </mxCell>
        <mxCell id="d-2P0EwqSTClX3Ax-pOf-39" value="" style="endArrow=none;html=1;rounded=0;exitX=0;exitY=1;exitDx=0;exitDy=0;entryX=0.75;entryY=0;entryDx=0;entryDy=0;" edge="1" parent="1" source="d-2P0EwqSTClX3Ax-pOf-9" target="d-2P0EwqSTClX3Ax-pOf-6">
          <mxGeometry relative="1" as="geometry">
            <mxPoint x="1290" y="190" as="sourcePoint" />
            <mxPoint x="1360" y="190" as="targetPoint" />
          </mxGeometry>
        </mxCell>
      </root>
    </mxGraphModel>
  </diagram>
</mxfile>
